<mxfile host="app.diagrams.net" modified="2024-04-30T05:00:50.359Z" agent="Mozilla/5.0 (Windows NT 10.0; Win64; x64) AppleWebKit/537.36 (KHTML, like Gecko) Chrome/124.0.0.0 Safari/537.36" etag="NLTt-op8rypAA7X9E0ln" version="24.2.5" type="github">
  <diagram name="Page-1" id="0MYz-lIWb89oemq3ZPXl">
    <mxGraphModel dx="522" dy="522" grid="0" gridSize="10" guides="1" tooltips="1" connect="1" arrows="1" fold="1" page="1" pageScale="1" pageWidth="850" pageHeight="1100" math="0" shadow="0">
      <root>
        <mxCell id="0" />
        <mxCell id="1" parent="0" />
        <mxCell id="pTN-I9MVHxsYScQbvfXk-3" value="Horizontal Container" style="swimlane;horizontal=0;whiteSpace=wrap;html=1;hachureGap=4;fontFamily=Architects Daughter;fontSource=https%3A%2F%2Ffonts.googleapis.com%2Fcss%3Ffamily%3DArchitects%2BDaughter;startSize=100;" vertex="1" parent="1">
          <mxGeometry x="404" y="183" width="200" height="200" as="geometry" />
        </mxCell>
      </root>
    </mxGraphModel>
  </diagram>
</mxfile>
